PathFileType	4	(X/Y/Z)	Patient4_TMGait_0pt4_02_left_26.trc.trc
DataRate	CameraRate	NumFrames	NumMarkers	Units	OrigDataRate	OrigDataStartFrame	OrigNumFrames
80.000000000000	80.000000000000	4	33	mm	80.000000000000	1	       141
Frame#	Time	Sacral			L.Shoulder			Chest			R.Shoulder			Neck			R.ASIS			L.ASIS			R.Thigh.Superior			R.Thigh.Lateral			R.Thigh.Inferior			R.Patella			L.Thigh.Superior			L.Thigh.Lateral			L.Thigh.Inferior			L.Patella			L.Shank.Superior			L.Shank.Lateral			L.Shank.Inferior			R.Shank.Superior			R.Shank.Lateral			R.Shank.Inferior			R.Heel			R.Midfoot.Superior			R.Midfoot.Lateral			R.Toe			L.Heel			L.Midfoot.Lateral			L.Midfoot.Superior			L.Toe			L.Elbow			L.Wrist			R.Elbow			R.Wrist			
		X1	Y1	Z1	X2	Y2	Z2	X3	Y3	Z3	X4	Y4	Z4	X5	Y5	Z5	X6	Y6	Z6	X7	Y7	Z7	X8	Y8	Z8	X9	Y9	Z9	X10	Y10	Z10	X11	Y11	Z11	X12	Y12	Z12	X13	Y13	Z13	X14	Y14	Z14	X15	Y15	Z15	X16	Y16	Z16	X17	Y17	Z17	X18	Y18	Z18	X19	Y19	Z19	X20	Y20	Z20	X21	Y21	Z21	X22	Y22	Z22	X23	Y23	Z23	X24	Y24	Z24	X25	Y25	Z25	X26	Y26	Z26	X27	Y27	Z27	X28	Y28	Z28	X29	Y29	Z29	X30	Y30	Z30	X31	Y31	Z31	X32	Y32	Z32	X33	Y33	Z33	

1	34.990000000000	878.139324251625	1000.093724324003	518.634143082694	1033.014618237424	1432.458267394065	322.674277543423	1148.786282043357	1369.687394658135	477.288404333100	1075.432387609519	1442.770202350155	656.132281118204	1026.799046085075	1496.354351548497	478.499046278326	1117.530119628956	946.975172836372	620.065213549976	1082.060091645576	965.440886776861	347.269890269534	1152.481232182889	742.197629651516	588.251414418358	1071.083576904959	633.612675927149	652.409395412937	1142.750030441869	580.471562562929	569.416906278059	1139.433547142050	493.134039941439	575.151490490733	1170.086447022076	781.063854698783	362.423186467282	1117.985552886561	650.893812403440	284.511173059230	1228.853275527898	594.420747998616	331.065828631652	1242.708387169543	506.861802557699	322.171495507048	1179.894530178656	436.997141727003	318.109658129444	1038.034981312994	386.255177862594	278.220334847037	1039.066312914583	253.922473237166	328.696354719331	1111.009449770663	404.110754131108	582.514233796390	1039.591833697631	300.808400679082	645.245804248450	1078.207775077116	206.085411763108	579.320849779682	942.281710155196	42.808617702272	548.601890493578	1113.008094674749	97.505180031309	586.140101528504	1025.518976300838	37.343110307624	624.138192692856	1233.766802660741	44.134330937585	613.786227957558	856.433106455769	175.726042735501	377.458934570986	911.006225929872	136.173531365116	291.561909759587	1017.348328412506	149.629250520326	306.517214608619	1099.212297387054	43.117811967207	268.065204464523	1000.344389455615	1075.141340274512	221.660049425278	1095.404750816839	831.034935301137	207.092223811605	1105.285950214190	1110.211114471750	809.157545393705	1305.786694239095	945.498600810855	791.821507216037	
2	35.002500000000	877.557492599171	1001.084589372913	520.049417861676	1032.527949875968	1432.707147203590	323.220315276805	1149.328018630012	1369.475546533371	476.861589819731	1077.857219645999	1443.028480180833	656.257030346641	1027.744572090878	1496.619503889032	478.779554206478	1117.015409349708	946.709182196281	619.775592929252	1080.011522735020	966.011683071821	347.234522650746	1149.644076841738	741.567325064735	587.635660603904	1067.699525949799	633.676409881319	652.516898420844	1138.262694368141	579.932343482253	569.198026111050	1134.449316037881	493.014214227794	575.109488459380	1168.454749458270	782.612042457311	362.468297554716	1117.237776536323	653.265336229110	284.596327029857	1228.204192987675	596.332328446718	331.385810860694	1243.248688963237	510.078063821025	322.236909569833	1183.726181132864	439.118975398118	317.422338717514	1045.369226239636	381.279151588211	277.140310795676	1054.018612208270	249.198257945529	326.318456386034	1105.816319122609	403.989519173446	582.500102818200	1034.482486336368	300.762567711986	645.350033521979	1072.970761652393	205.994647298651	579.345171677592	936.991476123428	42.742438981729	548.635672983474	1107.651382377967	97.486784492614	586.184706208670	1020.156661293080	37.306386877362	624.182057275627	1228.412184815744	44.114646806740	613.740654977485	877.439493390673	160.187800262789	374.730931719732	933.283396162563	125.353259897837	288.126733802023	1038.139640160487	144.834957642049	303.009436240645	1125.529891368471	44.574876380418	262.761774163371	993.527931003832	1075.830256918698	223.748880076932	1076.989778796247	828.721043539378	209.652253739824	1112.763319120225	1111.622595313261	809.445536271317	1320.360147327730	958.970848889742	788.850216098649	
3	35.015000000000	876.970391143828	1002.055742367022	521.410288577436	1032.073130724093	1432.943814280315	323.741422623798	1149.881553071602	1369.238485262682	476.416165656076	1080.273670067684	1443.246727210688	656.358060372640	1028.715651443021	1496.854967728778	479.071040479504	1116.488525168711	946.431691453069	619.455389406962	1077.992245597745	966.540319734766	347.174620655907	1146.834515382788	740.935702748387	587.021608155855	1064.357555901997	633.735347887097	652.622608110320	1133.825550676485	579.395382373919	568.979037865075	1129.516356458919	492.890778276148	575.066490258090	1166.762350897224	784.018297844547	362.529663230538	1116.379045313602	655.453763974535	284.657017578966	1227.343204018810	598.059086134951	331.794857330592	1243.574995157950	513.156595993414	322.360328683117	1187.363905650176	441.173056049188	316.774492152145	1052.686328967742	376.247536442002	276.003889971604	1068.956723386649	244.547165871217	323.946755896905	1100.684064256857	403.866029257891	582.484679888415	1029.429604242194	300.713748117980	645.449882604178	1067.781204590423	205.900789678356	579.365580480205	931.745370467081	42.678374752672	548.670924138714	1102.343782724298	97.464952887445	586.224045180830	1014.847084732692	37.271152185527	624.225348720283	1223.108593142932	44.093963494610	613.701925396360	898.615413717658	144.782040136389	371.908033624402	955.701356474540	114.703538963196	284.641167033574	1058.958596609791	140.202611268593	299.525079177916	1151.802675356762	46.299767522451	257.554276185156	986.724042702696	1076.554377116273	225.760009610102	1058.903483476571	826.584508729546	212.186947355675	1120.158975161572	1112.975279781063	809.659439797509	1334.646641535005	972.353832268567	785.824815118891	
4	35.027500000000	876.372584077767	1002.993092129537	522.661371047839	1031.689063486605	1433.156692104401	324.200570183053	1150.463019828876	1368.950710407349	475.923312653159	1082.679978992809	1443.390198026134	656.399168918136	1029.741194160495	1497.034215254450	479.367446606854	1115.939318647113	946.130474772290	619.073697126563	1076.024869328220	966.990137495293	347.057371476229	1144.071600112687	740.298522224072	586.406967711927	1061.079616849859	633.784575299468	652.715410559023	1129.467173897870	578.861158876337	568.754069109587	1124.660377913515	492.759369916623	575.015250864206	1164.930648586376	785.144432839433	362.612278146935	1115.283173882714	657.302016133029	284.658741671298	1226.066015488372	599.433741273715	332.342424309603	1243.472330343816	515.974998138638	322.586082100172	1190.615847086496	443.112147676499	316.193056981224	1059.961660763576	371.151575656521	274.766497940895	1083.843389421818	240.097999476468	321.596867585718	1095.645553075710	403.741367440669	582.462139030093	1024.461114683599	300.662042420640	645.539620971077	1062.660475047168	205.803077659436	579.377513572974	926.561537347523	42.618373963410	548.709716543396	1097.107470804230	97.434754218169	586.251087304301	1009.614067676278	37.238064499096	624.267569736384	1217.879347806594	44.071862087766	613.675863454057	920.088311779742	129.747572743433	368.935286914462	978.377303241202	104.449696667588	281.105903790448	1079.817043060139	135.930434795667	296.113960921460	1177.961397992762	48.552488731288	252.609842068590	979.943915632406	1077.356960179835	227.622184241731	1041.429554884123	824.795276815814	214.661032041205	1127.412631586965	1114.214364842850	809.701492284113	1348.376140617353	985.576912402210	782.676432536076	
